<svg width="30" height="30" viewBox="0 0 30 30" fill="none" xmlns="http://www.w3.org/2000/svg"><path d="M14.75 0C17.3225 0 19.7444 0.660036 21.8525 1.82031C22.4573 2.1532 22.6776 2.91279 22.3447 3.51758C22.0118 4.12233 21.2522 4.34262 20.6475 4.00977C18.8993 3.04758 16.8904 2.5 14.75 2.5C7.98451 2.5 2.5 7.98451 2.5 14.75C2.5 21.5155 7.98451 27 14.75 27C21.5155 27 27 21.5155 27 14.75C27 13.6496 26.8548 12.585 26.584 11.5732C26.4055 10.9064 26.8019 10.2215 27.4688 10.043C28.1356 9.86446 28.8205 10.2599 28.999 10.9268C29.3258 12.1475 29.5 13.4294 29.5 14.75C29.5 22.8962 22.8962 29.5 14.75 29.5C6.6038 29.5 0 22.8962 0 14.75C0 6.6038 6.6038 0 14.75 0ZM26.8662 2.86621C27.3544 2.37806 28.1456 2.37806 28.6338 2.86621C29.1219 3.35437 29.1219 4.14565 28.6338 4.63379L14.25 19.0176L8.86621 13.6338C8.37807 13.1456 8.3781 12.3544 8.86621 11.8662C9.35437 11.3781 10.1456 11.3781 10.6338 11.8662L14.25 15.4824L26.8662 2.86621Z" fill="#A8884D"/></svg>